<svg width="24" height="24" viewBox="0 0 24 24" fill="none" xmlns="http://www.w3.org/2000/svg">
<rect width="24" height="24" fill="white"/>
<path d="M21.5161 6.0986C21.2058 5.29655 20.7584 4.56975 20.1988 3.95886C19.6389 3.34616 18.9787 2.85925 18.2542 2.52462C17.5029 2.17624 16.6971 1.99793 15.8835 2.00002C14.7422 2.00002 13.6286 2.34889 12.6609 3.00787C12.4294 3.1655 12.2095 3.33865 12.0011 3.5273C11.7928 3.33865 11.5729 3.1655 11.3413 3.00787C10.3736 2.34889 9.26009 2.00002 8.11876 2.00002C7.2969 2.00002 6.50052 2.17575 5.74811 2.52462C5.02118 2.86057 4.36601 3.34382 3.80345 3.95886C3.24319 4.56906 2.79564 5.29604 2.48617 6.0986C2.16437 6.93331 2 7.8197 2 8.73193C2 9.59248 2.15743 10.4892 2.46996 11.4014C2.73157 12.1638 3.10661 12.9546 3.58583 13.7531C4.34518 15.0168 5.38928 16.3347 6.68572 17.6708C8.83412 19.8855 10.9617 21.4153 11.052 21.4773L11.6006 21.8701C11.8437 22.0433 12.1563 22.0433 12.3993 21.8701L12.948 21.4773C13.0383 21.4127 15.1635 19.8855 17.3143 17.6708C18.6107 16.3347 19.6548 15.0168 20.4141 13.7531C20.8934 12.9546 21.2707 12.1638 21.53 11.4014C21.8426 10.4892 22 9.59248 22 8.73193C22.0023 7.8197 21.8379 6.93331 21.5161 6.0986ZM12.0011 19.826C12.0011 19.826 3.75946 13.9314 3.75946 8.73193C3.75946 6.0986 5.71107 3.96403 8.11876 3.96403C9.81108 3.96403 11.2788 5.0184 12.0011 6.55859C12.7235 5.0184 14.1912 3.96403 15.8835 3.96403C18.2912 3.96403 20.2428 6.0986 20.2428 8.73193C20.2428 13.9314 12.0011 19.826 12.0011 19.826Z" fill="#8C6FEE"/>
</svg>
