<svg width="19" height="21" viewBox="0 0 19 21" fill="none" xmlns="http://www.w3.org/2000/svg">
<path d="M12.8159 6.89662C13.7304 6.70084 14.508 7.67275 14.2082 8.63696L11.2293 18.2188C10.9504 19.1159 9.91799 19.3902 9.27468 18.7382L6.38662 15.8108C6.36432 15.7882 6.33512 15.7756 6.30497 15.7756V15.7756C6.19985 15.7756 6.14474 15.6368 6.21724 15.5547L12.0178 8.98523L5.23916 13.4015C4.73883 13.7275 4.09116 13.6085 3.70403 13.1196L0.941679 9.63088C0.861332 9.52941 0.737992 9.48231 0.618902 9.50763V9.50763L12.8159 6.89662Z" fill="#EBD5FE"/>
<path d="M6.00475 16.1297L8.36191 18.63L7.22506 19.4726L5.75702 20.5754L6.00475 16.1297Z" fill="#EBD5FE"/>
<path d="M15.0955 6.37562L13.6768 9.948L11.8457 7.11689L15.0955 6.37562Z" fill="#EBD5FE"/>
</svg>
