<svg width="26" height="22" viewBox="0 0 26 22" fill="none" xmlns="http://www.w3.org/2000/svg">
<path d="M1.45952 0.000135008C1.33237 -0.00239492 1.20613 0.0306544 1.08814 0.0973622C0.970151 0.16407 0.86276 0.263106 0.77221 0.388714C0.681659 0.514322 0.609756 0.663999 0.560679 0.829044C0.511601 0.994089 0.486328 1.17121 0.486328 1.35012C0.486328 1.52902 0.511601 1.70615 0.560679 1.87119C0.609756 2.03624 0.681659 2.18591 0.77221 2.31152C0.86276 2.43713 0.970151 2.53617 1.08814 2.60287C1.20613 2.66958 1.33237 2.70263 1.45952 2.7001H24.4881C24.6153 2.70263 24.7415 2.66958 24.8595 2.60287C24.9775 2.53617 25.0849 2.43713 25.1754 2.31152C25.266 2.18591 25.3379 2.03624 25.387 1.87119C25.4361 1.70615 25.4613 1.52902 25.4613 1.35012C25.4613 1.17121 25.4361 0.994089 25.387 0.829044C25.3379 0.663999 25.266 0.514322 25.1754 0.388714C25.0849 0.263106 24.9775 0.16407 24.8595 0.0973622C24.7415 0.0306544 24.6153 -0.00239492 24.4881 0.000135008H1.45952ZM1.45952 9.45002C1.33237 9.44749 1.20613 9.48054 1.08814 9.54724C0.970151 9.61395 0.86276 9.71299 0.77221 9.8386C0.681659 9.9642 0.609756 10.1139 0.560679 10.2789C0.511601 10.444 0.486328 10.6211 0.486328 10.8C0.486328 10.9789 0.511601 11.156 0.560679 11.3211C0.609756 11.4861 0.681659 11.6358 0.77221 11.7614C0.86276 11.887 0.970151 11.986 1.08814 12.0528C1.20613 12.1195 1.33237 12.1525 1.45952 12.15H24.4881C24.6153 12.1525 24.7415 12.1195 24.8595 12.0528C24.9775 11.986 25.0849 11.887 25.1754 11.7614C25.266 11.6358 25.3379 11.4861 25.387 11.3211C25.4361 11.156 25.4613 10.9789 25.4613 10.8C25.4613 10.6211 25.4361 10.444 25.387 10.2789C25.3379 10.1139 25.266 9.9642 25.1754 9.8386C25.0849 9.71299 24.9775 9.61395 24.8595 9.54724C24.7415 9.48054 24.6153 9.44749 24.4881 9.45002H1.45952ZM1.45952 18.8999C1.33237 18.8974 1.20613 18.9304 1.08814 18.9971C0.970151 19.0638 0.86276 19.1629 0.77221 19.2885C0.681659 19.4141 0.609756 19.5638 0.560679 19.7288C0.511601 19.8939 0.486328 20.071 0.486328 20.2499C0.486328 20.4288 0.511601 20.6059 0.560679 20.771C0.609756 20.936 0.681659 21.0857 0.77221 21.2113C0.86276 21.3369 0.970151 21.4359 1.08814 21.5026C1.20613 21.5693 1.33237 21.6024 1.45952 21.5999H24.4881C24.6153 21.6024 24.7415 21.5693 24.8595 21.5026C24.9775 21.4359 25.0849 21.3369 25.1754 21.2113C25.266 21.0857 25.3379 20.936 25.387 20.771C25.4361 20.6059 25.4613 20.4288 25.4613 20.2499C25.4613 20.071 25.4361 19.8939 25.387 19.7288C25.3379 19.5638 25.266 19.4141 25.1754 19.2885C25.0849 19.1629 24.9775 19.0638 24.8595 18.9971C24.7415 18.9304 24.6153 18.8974 24.4881 18.8999H1.45952Z" fill="black"/>
</svg>
 