<svg width="20" height="21" viewBox="0 0 20 21" fill="none" xmlns="http://www.w3.org/2000/svg">
<path d="M19.5161 4.45554C19.2058 3.65349 18.7584 2.92668 18.1988 2.3158C17.6389 1.70309 16.9787 1.21618 16.2542 0.88155C15.5029 0.533178 14.6971 0.354862 13.8835 0.356952C12.7422 0.356952 11.6286 0.705822 10.6609 1.3648C10.4294 1.52244 10.2095 1.69558 10.0011 1.88423C9.79279 1.69558 9.57286 1.52244 9.34135 1.3648C8.37364 0.705822 7.26009 0.356952 6.11876 0.356952C5.2969 0.356952 4.50052 0.532679 3.74811 0.88155C3.02118 1.2175 2.36601 1.70075 1.80345 2.3158C1.24319 2.92599 0.795642 3.65297 0.486167 4.45554C0.164371 5.29024 0 6.17663 0 7.08886C0 7.94941 0.157426 8.84614 0.469961 9.75837C0.731565 10.5207 1.10661 11.3115 1.58583 12.11C2.34518 13.3737 3.38928 14.6917 4.68572 16.0277C6.83412 18.2424 8.96167 19.7723 9.05196 19.8343L9.60064 20.2271C9.84372 20.4002 10.1563 20.4002 10.3993 20.2271L10.948 19.8343C11.0383 19.7697 13.1635 18.2424 15.3143 16.0277C16.6107 14.6917 17.6548 13.3737 18.4141 12.11C18.8934 11.3115 19.2707 10.5207 19.53 9.75837C19.8426 8.84614 20 7.94941 20 7.08886C20.0023 6.17663 19.8379 5.29024 19.5161 4.45554ZM10.0011 18.183C10.0011 18.183 1.75946 12.2883 1.75946 7.08886C1.75946 4.45554 3.71107 2.32096 6.11876 2.32096C7.81108 2.32096 9.27884 3.37533 10.0011 4.91553C10.7235 3.37533 12.1912 2.32096 13.8835 2.32096C16.2912 2.32096 18.2428 4.45554 18.2428 7.08886C18.2428 12.2883 10.0011 18.183 10.0011 18.183Z" fill="black"/>
</svg>
