<svg width="33" height="33" viewBox="0 0 33 33" fill="none" xmlns="http://www.w3.org/2000/svg">
<g filter="url(#filter0_d_646_2305)">
<path d="M29 15.5C29 22.4036 23.4036 28 16.5 28C9.59644 28 4 22.4036 4 15.5C4 8.59644 9.59644 3 16.5 3C23.4036 3 29 8.59644 29 15.5Z" fill="white"/>
</g>
<path d="M16.2915 18.2258C16.9946 18.2258 17.5924 17.9676 18.0848 17.4513C18.5768 16.9346 18.8228 16.3074 18.8228 15.5695C18.8228 14.8317 18.5768 14.2044 18.0848 13.6877C17.5924 13.1714 16.9946 12.9133 16.2915 12.9133C15.5884 12.9133 14.9906 13.1714 14.4983 13.6877C14.0063 14.2044 13.7603 14.8317 13.7603 15.5695C13.7603 16.3074 14.0063 16.9346 14.4983 17.4513C14.9906 17.9676 15.5884 18.2258 16.2915 18.2258ZM16.2915 17.0452C15.8978 17.0452 15.5649 16.9026 15.2931 16.6173C15.0212 16.332 14.8853 15.9827 14.8853 15.5695C14.8853 15.1563 15.0212 14.8071 15.2931 14.5218C15.5649 14.2365 15.8978 14.0938 16.2915 14.0938C16.6853 14.0938 17.0181 14.2365 17.2899 14.5218C17.5618 14.8071 17.6978 15.1563 17.6978 15.5695C17.6978 15.9827 17.5618 16.332 17.2899 16.6173C17.0181 16.9026 16.6853 17.0452 16.2915 17.0452ZM11.7915 20.2917C11.4821 20.2917 11.2174 20.1763 10.9973 19.9453C10.7768 19.7139 10.6665 19.4358 10.6665 19.1112V12.0279C10.6665 11.7032 10.7768 11.4254 10.9973 11.1944C11.2174 10.963 11.4821 10.8473 11.7915 10.8473H13.5634L14.604 9.66675H17.979L19.0196 10.8473H20.7915C21.1009 10.8473 21.3658 10.963 21.5863 11.1944C21.8064 11.4254 21.9165 11.7032 21.9165 12.0279V19.1112C21.9165 19.4358 21.8064 19.7139 21.5863 19.9453C21.3658 20.1763 21.1009 20.2917 20.7915 20.2917H11.7915ZM20.7915 19.1112V12.0279H18.5134L17.4868 10.8473H15.0962L14.0696 12.0279H11.7915V19.1112H20.7915Z" fill="black"/>
<defs>
<filter id="filter0_d_646_2305" x="0" y="0" width="33" height="33" filterUnits="userSpaceOnUse" color-interpolation-filters="sRGB">
<feFlood flood-opacity="0" result="BackgroundImageFix"/>
<feColorMatrix in="SourceAlpha" type="matrix" values="0 0 0 0 0 0 0 0 0 0 0 0 0 0 0 0 0 0 127 0" result="hardAlpha"/>
<feOffset dy="1"/>
<feGaussianBlur stdDeviation="2"/>
<feComposite in2="hardAlpha" operator="out"/>
<feColorMatrix type="matrix" values="0 0 0 0 0.101961 0 0 0 0 0.0588235 0 0 0 0 0.00392157 0 0 0 0.12 0"/>
<feBlend mode="normal" in2="BackgroundImageFix" result="effect1_dropShadow_646_2305"/>
<feBlend mode="normal" in="SourceGraphic" in2="effect1_dropShadow_646_2305" result="shape"/>
</filter>
</defs>
</svg>
