<svg width="23" height="24" viewBox="0 0 23 24" fill="none" xmlns="http://www.w3.org/2000/svg">
<g clip-path="url(#clip0_56_1645)">
<path d="M19.7656 5.07188C19.2978 4.59282 18.7424 4.2128 18.1311 3.95352C17.5198 3.69424 16.8646 3.56079 16.2029 3.56079C15.5412 3.56079 14.8859 3.69424 14.2746 3.95352C13.6633 4.2128 13.1079 4.59282 12.6401 5.07188L11.6693 6.06563L10.6984 5.07188C9.75353 4.10467 8.47197 3.56129 7.13567 3.56129C5.79938 3.56129 4.51782 4.10467 3.57291 5.07188C2.62801 6.03909 2.09717 7.35091 2.09717 8.71875C2.09717 10.0866 2.62801 11.3984 3.57291 12.3656L4.54374 13.3594L11.6693 20.6531L18.7948 13.3594L19.7656 12.3656C20.2336 11.8868 20.6049 11.3183 20.8582 10.6925C21.1115 10.0668 21.2419 9.39608 21.2419 8.71875C21.2419 8.04142 21.1115 7.37072 20.8582 6.74498C20.6049 6.11924 20.2336 5.55071 19.7656 5.07188V5.07188Z" fill="#8C6FEE" stroke="#8C6FEE" stroke-width="2.92208" stroke-linecap="round" stroke-linejoin="round"/>
</g>
<defs>
<clipPath id="clip0_56_1645">
<rect width="21.9811" height="22.5" fill="white" transform="translate(0.678711 0.75)"/>
</clipPath>
</defs>
</svg>
