<svg width="24" height="25" viewBox="0 0 24 25" fill="none" xmlns="http://www.w3.org/2000/svg">
<path d="M3.75 3.13452C2.51625 3.13452 1.5 4.15077 1.5 5.38452V17.8845C1.5 19.6705 2.96403 21.1345 4.75 21.1345H19.25C21.036 21.1345 22.5 19.6705 22.5 17.8845V10.3845C22.5 9.15077 21.4838 8.13452 20.25 8.13452H19.5V5.38452C19.5 4.15077 18.4838 3.13452 17.25 3.13452H3.75ZM3.75 4.63452H17.25C17.6733 4.63452 18 4.96127 18 5.38452V8.76147C17.9868 8.84199 17.9868 8.92412 18 9.00464V17.3845C17.9986 17.4839 18.017 17.5826 18.054 17.6748C18.0911 17.767 18.1461 17.851 18.2159 17.9217C18.2857 17.9925 18.3688 18.0487 18.4605 18.0871C18.5522 18.1254 18.6506 18.1452 18.75 18.1452C18.8494 18.1452 18.9478 18.1254 19.0395 18.0871C19.1312 18.0487 19.2143 17.9925 19.2841 17.9217C19.3539 17.851 19.4089 17.767 19.446 17.6748C19.483 17.5826 19.5014 17.4839 19.5 17.3845V9.63452H20.25C20.6733 9.63452 21 9.96127 21 10.3845V17.8845C21 18.8596 20.225 19.6345 19.25 19.6345H4.75C3.77497 19.6345 3 18.8596 3 17.8845V5.38452C3 4.96127 3.32675 4.63452 3.75 4.63452ZM5.25 7.63452C5.15062 7.63312 5.05194 7.65148 4.95972 7.68854C4.86749 7.7256 4.78355 7.78062 4.71277 7.8504C4.642 7.92018 4.58579 8.00334 4.54743 8.09503C4.50907 8.18673 4.48932 8.28513 4.48932 8.38452C4.48932 8.48392 4.50907 8.58232 4.54743 8.67401C4.58579 8.7657 4.642 8.84886 4.71277 8.91864C4.78355 8.98842 4.86749 9.04345 4.95972 9.08051C5.05194 9.11757 5.15062 9.13593 5.25 9.13452H15.75C15.8494 9.13593 15.9481 9.11757 16.0403 9.08051C16.1325 9.04345 16.2164 8.98842 16.2872 8.91864C16.358 8.84886 16.4142 8.7657 16.4526 8.67401C16.4909 8.58232 16.5107 8.48392 16.5107 8.38452C16.5107 8.28513 16.4909 8.18673 16.4526 8.09503C16.4142 8.00334 16.358 7.92018 16.2872 7.8504C16.2164 7.78062 16.1325 7.7256 16.0403 7.68854C15.9481 7.65148 15.8494 7.63312 15.75 7.63452H5.25ZM5.25 11.6345C5.05109 11.6345 4.86034 11.7136 4.71969 11.8542C4.57904 11.9949 4.50002 12.1856 4.5 12.3845V15.8845C4.50002 16.0834 4.57904 16.2742 4.71969 16.4148C4.86034 16.5555 5.05109 16.6345 5.25 16.6345H8.75C8.94891 16.6345 9.13966 16.5555 9.28031 16.4148C9.42096 16.2742 9.49998 16.0834 9.5 15.8845V12.3845C9.49998 12.1856 9.42096 11.9949 9.28031 11.8542C9.13966 11.7136 8.94891 11.6345 8.75 11.6345H5.25ZM11.75 11.6345C11.6506 11.6331 11.5519 11.6515 11.4597 11.6885C11.3675 11.7256 11.2836 11.7806 11.2128 11.8504C11.142 11.9202 11.0858 12.0033 11.0474 12.095C11.0091 12.1867 10.9893 12.2851 10.9893 12.3845C10.9893 12.4839 11.0091 12.5823 11.0474 12.674C11.0858 12.7657 11.142 12.8489 11.2128 12.9186C11.2836 12.9884 11.3675 13.0434 11.4597 13.0805C11.5519 13.1176 11.6506 13.1359 11.75 13.1345H15.75C15.8494 13.1359 15.9481 13.1176 16.0403 13.0805C16.1325 13.0434 16.2164 12.9884 16.2872 12.9186C16.358 12.8489 16.4142 12.7657 16.4526 12.674C16.4909 12.5823 16.5107 12.4839 16.5107 12.3845C16.5107 12.2851 16.4909 12.1867 16.4526 12.095C16.4142 12.0033 16.358 11.9202 16.2872 11.8504C16.2164 11.7806 16.1325 11.7256 16.0403 11.6885C15.9481 11.6515 15.8494 11.6331 15.75 11.6345H11.75ZM6 13.1345H8V15.1345H6V13.1345ZM11.75 15.1345C11.6506 15.1331 11.5519 15.1515 11.4597 15.1885C11.3675 15.2256 11.2836 15.2806 11.2128 15.3504C11.142 15.4202 11.0858 15.5033 11.0474 15.595C11.0091 15.6867 10.9893 15.7851 10.9893 15.8845C10.9893 15.9839 11.0091 16.0823 11.0474 16.174C11.0858 16.2657 11.142 16.3489 11.2128 16.4186C11.2836 16.4884 11.3675 16.5434 11.4597 16.5805C11.5519 16.6176 11.6506 16.6359 11.75 16.6345H15.75C15.8494 16.6359 15.9481 16.6176 16.0403 16.5805C16.1325 16.5434 16.2164 16.4884 16.2872 16.4186C16.358 16.3489 16.4142 16.2657 16.4526 16.174C16.4909 16.0823 16.5107 15.9839 16.5107 15.8845C16.5107 15.7851 16.4909 15.6867 16.4526 15.595C16.4142 15.5033 16.358 15.4202 16.2872 15.3504C16.2164 15.2806 16.1325 15.2256 16.0403 15.1885C15.9481 15.1515 15.8494 15.1331 15.75 15.1345H11.75Z" fill="black"/>
</svg>
