<svg width="24" height="24" viewBox="0 0 24 24" fill="none" xmlns="http://www.w3.org/2000/svg">
<path d="M10.9402 6.07996C11.291 6.0262 11.6453 5.99945 12.0002 5.99996C15.1802 5.99996 18.1702 8.28996 19.9102 12C19.6441 12.5646 19.3435 13.1123 19.0102 13.64C18.9044 13.8038 18.8488 13.995 18.8502 14.19C18.8548 14.6385 19.1574 15.029 19.5906 15.1455C20.0237 15.2619 20.4814 15.0757 20.7102 14.69C21.1761 13.9579 21.5808 13.1886 21.9202 12.39C22.0286 12.1378 22.0286 11.8521 21.9202 11.6C19.9002 6.90996 16.1002 3.99987 12.0002 3.99987C11.5309 3.9976 11.0623 4.03776 10.6002 4.11996C10.2429 4.1807 9.94522 4.42742 9.81918 4.76719C9.69315 5.10696 9.75795 5.48816 9.98918 5.76719C10.2204 6.04622 10.5829 6.1807 10.9402 6.11996V6.07996ZM3.71021 2.28996C3.45655 2.03631 3.08683 1.93724 2.74033 2.03009C2.39383 2.12293 2.12318 2.39358 2.03033 2.74009C1.93748 3.08659 2.03655 3.45631 2.29021 3.70996L5.39021 6.79996C3.97578 8.16149 2.85007 9.79395 2.08021 11.6C1.9689 11.855 1.9689 12.1449 2.08021 12.4C4.10021 17.09 7.90021 20 12.0002 20C13.7973 19.9876 15.552 19.4525 17.0502 18.46L20.2902 21.71C20.478 21.8993 20.7336 22.0058 21.0002 22.0058C21.2668 22.0058 21.5224 21.8993 21.7102 21.71C21.8995 21.5222 22.006 21.2666 22.006 21C22.006 20.7333 21.8995 20.4777 21.7102 20.29L3.71021 2.28996ZM10.0702 11.48L12.5202 13.93C12.3512 13.9784 12.176 14.002 12.0002 14C10.8956 14 10.0002 13.1045 10.0002 12C9.99816 11.8242 10.0217 11.649 10.0702 11.48ZM12.0002 18C8.82021 18 5.83021 15.71 4.10021 12C4.7463 10.5737 5.66328 9.28654 6.80021 8.20996L8.57021 9.99996C7.71623 11.5586 7.99304 13.4937 9.24973 14.7504C10.5064 16.0071 12.4416 16.2839 14.0002 15.43L15.5902 17C14.5013 17.6408 13.2636 17.9856 12.0002 18Z" fill="#111111"/>
</svg>