<svg width="86" height="86" viewBox="0 0 86 86" fill="none" xmlns="http://www.w3.org/2000/svg">
<path d="M45.3 72C48.7 72 51.9667 71.4833 55.1 70.45C58.2333 69.4167 61.1667 67.9333 63.9 66C61.1667 64.0667 58.2333 62.5833 55.1 61.55C51.9667 60.5167 48.7 60 45.3 60C41.9 60 38.6333 60.5167 35.5 61.55C32.3667 62.5833 29.4333 64.0667 26.7 66C29.4333 67.9333 32.3667 69.4167 35.5 70.45C38.6333 71.4833 41.9 72 45.3 72ZM55.9 39.2L50.2 33.5C50.5333 32.9667 50.8 32.4 51 31.8C51.2 31.2 51.3 30.6 51.3 30C51.3 28.3333 50.7167 26.9167 49.55 25.75C48.3833 24.5833 46.9667 24 45.3 24C44.7 24 44.1 24.1 43.5 24.3C42.9 24.5 42.3333 24.7667 41.8 25.1L36.1 19.4C37.3667 18.2667 38.7833 17.4167 40.35 16.85C41.9167 16.2833 43.5667 16 45.3 16C49.1667 16 52.4667 17.3667 55.2 20.1C57.9333 22.8333 59.3 26.1333 59.3 30C59.3 31.7333 59.0167 33.3833 58.45 34.95C57.8833 36.5167 57.0333 37.9333 55.9 39.2ZM78.7 62L72.9 56.2C74.3667 53.7333 75.4667 51.1333 76.2 48.4C76.9333 45.6667 77.3 42.8667 77.3 40C77.3 31.0667 74.2 23.5 68 17.3C61.8 11.1 54.2333 8 45.3 8C42.4333 8 39.6333 8.36667 36.9 9.1C34.1667 9.83333 31.5667 10.9333 29.1 12.4L23.3 6.6C26.5667 4.46667 30.0667 2.83333 33.8 1.7C37.5333 0.566667 41.3667 0 45.3 0C50.8333 0 56.0333 1.05 60.9 3.15C65.7667 5.25 70 8.1 73.6 11.7C77.2 15.3 80.05 19.5333 82.15 24.4C84.25 29.2667 85.3 34.4667 85.3 40C85.3 43.9333 84.7333 47.7667 83.6 51.5C82.4667 55.2333 80.8333 58.7333 78.7 62ZM45.3 80C39.7667 80 34.5667 78.95 29.7 76.85C24.8333 74.75 20.6 71.9 17 68.3C13.4 64.7 10.55 60.4667 8.45 55.6C6.35 50.7333 5.3 45.5333 5.3 40C5.3 36.0667 5.85 32.2333 6.95 28.5C8.05 24.7667 9.66667 21.2333 11.8 17.9L0 6L5.7 0.3L84.9 79.5L79.2 85.2L17.7 23.8C16.2333 26.2667 15.1333 28.8667 14.4 31.6C13.6667 34.3333 13.3 37.1333 13.3 40C13.3 43.8 13.9333 47.4333 15.2 50.9C16.4667 54.3667 18.3 57.5333 20.7 60.4C24.3 57.6667 28.1833 55.5833 32.35 54.15C36.5167 52.7167 40.8333 52 45.3 52C47.8333 52 50.3667 52.2667 52.9 52.8C55.4333 53.3333 57.9 54.0667 60.3 55L73.6 68.3C69.8 72.1 65.4667 75 60.6 77C55.7333 79 50.6333 80 45.3 80Z" fill="black"/>
</svg>
